# xmcd
#
# Track frame offsets: 
#        150
#        20890
#        41817
#        61492
#        79960
#        97337
#        120047
#        132595
#        161730
#        177565
#
# Disc length: 2699 seconds
#
# Revision: 5
# Processed by: cddbd v1.5.2PL0 Copyright (c) Steve Scherf et al.
# Submitted via: ExactAudioCopy v1.0b3
#
DISCID=920a890a
DTITLE=Roomful of Blues - There Goes The Neighborhood
DYEAR=1998
DGENRE=Blues
TTITLE0=Backseat Blues
TTITLE1=The Goes the Neighborhood
TTITLE2=Just Like Dynamite
TTITLE3=Lost Mind
TTITLE4=I Tried
TTITLE5=Rocks In My Bed
TTITLE6=She's Mine
TTITLE7=I Smell Trouble
TTITLE8=Blue, Blue World
TTITLE9=The Comeback
EXTD=
EXTT0=
EXTT1=
EXTT2=
EXTT3=
EXTT4=
EXTT5=
EXTT6=
EXTT7=
EXTT8=
EXTT9=
PLAYORDER=
